External Loads File
version=1
nRows=85
nColumns=13
Range=5.000000e-03-10 seconds
endheader
time 	forceRightX 	forceRightY 	forceRightZ 	pointRightX 	pointRightY 	pointRightZ 	forceLeftX 	forceLeftY 	forceLeftZ 	pointLeftX 	pointLeftY 	pointLeftZ 		
2.505000 -8.282556 677.172294 -0.000000 0.316087 0.238280 -0.103714 79.762814 -28.908069 -0.000000 0.056034 0.395902 -0.342328
2.510000 -0.578519 703.940675 -0.000000 0.312513 0.230562 -0.103879 79.549218 -29.572102 -0.000000 0.060635 0.403275 -0.342315
2.515000 8.295700 731.620474 -0.000000 0.308572 0.223015 -0.103988 78.574299 -30.714838 -0.000000 0.065567 0.410399 -0.342246
2.520000 18.240707 759.862735 -0.000000 0.304290 0.215927 -0.104041 76.732328 -32.287008 -0.000000 0.070910 0.417408 -0.342396
2.525000 29.899541 788.206902 -0.000000 0.299589 0.208897 -0.104109 73.925826 -34.263816 -0.000000 0.076664 0.424125 -0.342384
2.530000 43.021454 816.084153 -0.000000 0.294444 0.202275 -0.104099 70.144351 -36.504850 -0.000000 0.082773 0.430675 -0.342457
2.535000 57.092873 842.831225 -0.000000 0.289058 0.195915 -0.104023 65.429308 -38.883387 -0.000000 0.089193 0.436831 -0.342443
2.540000 74.084075 867.509747 -0.000000 0.283362 0.189830 -0.103510 59.722434 -41.515042 -0.000000 0.096634 0.442535 -0.343229
2.545000 91.184933 889.485106 -0.000000 0.277361 0.184157 -0.103392 53.187654 -44.199874 -0.000000 0.103814 0.448125 -0.343396
2.550000 109.370411 907.869745 -0.000000 0.270908 0.178801 -0.103224 45.815708 -47.041426 -0.000000 0.111200 0.453183 -0.343512
2.555000 126.121465 922.248607 -0.000000 0.264259 0.173787 -0.103261 37.772645 -49.945774 -0.000000 0.118075 0.457958 -0.343138
2.560000 145.439439 931.468460 -0.000000 0.257427 0.169141 -0.103321 28.861264 -53.073055 -0.000000 0.126071 0.462407 -0.343050
2.565000 163.321284 935.580225 -0.000000 0.250500 0.164954 -0.103249 19.317128 -56.199059 -0.000000 0.134051 0.466204 -0.343167
2.570000 181.296727 933.948457 -0.000000 0.243378 0.161223 -0.103266 9.099069 -59.264410 -0.000000 0.142414 0.469856 -0.343328
2.575000 197.062550 926.715391 -0.000000 0.236206 0.157454 -0.103145 -1.555468 -62.077964 -0.000000 0.150544 0.473189 -0.343447
2.580000 211.384853 913.572060 -0.000000 0.228852 0.154386 -0.103008 -12.533314 -64.432102 -0.000000 0.158904 0.476139 -0.343566
2.585000 223.310111 894.654387 -0.000000 0.221494 0.151751 -0.102892 -23.541732 -66.067458 -0.000000 0.167338 0.478729 -0.343493
2.590000 232.146642 870.144734 -0.000000 0.214162 0.149490 -0.102712 -34.260323 -66.731418 -0.000000 0.175635 0.480963 -0.343705
2.595000 238.684207 839.913806 -0.000000 0.206732 0.147581 -0.102476 -44.480578 -66.137771 -0.000000 0.184041 0.482696 -0.343789
2.600000 241.280563 804.628532 -0.000000 0.199618 0.146420 -0.101927 -53.823971 -64.181753 -0.000000 0.192284 0.484171 -0.343762
2.605000 242.814973 763.806476 -0.000000 0.191726 0.145554 -0.101967 -62.287697 -60.585124 -0.000000 0.200443 0.485195 -0.344095
2.610000 240.378409 718.914426 -0.000000 0.184354 0.145223 -0.101728 -69.425178 -55.566719 -0.000000 0.208438 0.485800 -0.344123
2.615000 235.545255 670.197096 -0.000000 0.176967 0.145205 -0.101571 -75.175210 -49.112423 -0.000000 0.216248 0.485951 -0.344327
2.620000 228.965106 618.096207 -0.000000 0.169576 0.145688 -0.101499 -79.453421 -41.287828 -0.000000 0.224105 0.485770 -0.344338
2.625000 219.372431 563.592342 -0.000000 0.162690 0.146773 -0.101129 -82.129669 -32.414119 -0.000000 0.231607 0.485255 -0.344618
2.630000 208.181593 506.670185 -0.000000 0.155532 0.148211 -0.101032 -83.351681 -22.481240 -0.000000 0.238731 0.484272 -0.344937
2.635000 195.308193 448.039775 -0.000000 0.148536 0.150168 -0.100826 -83.274459 -11.673224 -0.000000 0.245642 0.482828 -0.345073
2.640000 180.964615 388.394831 -0.000000 0.141607 0.152727 -0.100773 -82.179872 -0.090855 -0.000000 0.252169 0.480936 -0.345403
2.645000 164.880846 328.640705 -0.000000 0.135002 0.155582 -0.100702 -80.421827 12.159715 -0.000000 0.258291 0.478747 -0.345649
2.650000 147.807196 269.316406 -0.000000 0.128513 0.159053 -0.100626 -78.338511 25.299371 -0.000000 0.264166 0.475889 -0.346053
2.655000 129.519996 211.714491 -0.000000 0.122202 0.162753 -0.100538 -76.246609 39.364393 -0.000000 0.269580 0.472505 -0.346080
2.660000 110.624891 156.863423 -0.000000 0.116024 0.167064 -0.100516 -74.342699 54.617604 -0.000000 0.274766 0.468930 -0.346548
2.665000 91.542157 105.838761 -0.000000 0.110007 0.171684 -0.100483 -72.789266 71.246560 -0.000000 0.279510 0.464671 -0.346849
2.670000 72.849155 59.369618 -0.000000 0.104148 0.176662 -0.100495 -71.697237 89.449284 -0.000000 0.283849 0.459909 -0.347231
2.675000 55.091791 17.811117 -0.000000 0.098335 0.181887 -0.100546 -71.121171 109.393216 -0.000000 0.287814 0.454462 -0.347468
2.680000 38.642036 -18.700661 -0.000000 0.092664 0.187530 -0.100573 -71.237747 131.070863 -0.000000 0.291400 0.448749 -0.347784
2.685000 23.734528 -50.256035 -0.000000 0.087252 0.193517 -0.100503 -72.174587 154.412588 -0.000000 0.294719 0.442600 -0.347943
2.690000 10.395280 -76.977937 -0.000000 0.082111 0.199708 -0.100490 -74.114435 179.188200 -0.000000 0.297772 0.436042 -0.348153
2.695000 -1.639229 -98.960908 -0.000000 0.077272 0.206347 -0.100354 -76.964996 205.130631 -0.000000 0.300728 0.429040 -0.348203
2.700000 -12.501659 -116.215179 -0.000000 0.072963 0.213083 -0.100083 -81.020320 231.678001 -0.000000 0.303415 0.421620 -0.348373
2.705000 -22.420221 -128.746841 -0.000000 0.069178 0.220164 -0.099907 -86.148643 258.347338 -0.000000 0.305924 0.413968 -0.348376
2.710000 -31.421316 -136.631323 -0.000000 0.065857 0.227210 -0.099677 -92.271633 284.614910 -0.000000 0.308306 0.405931 -0.348523
2.715000 -39.338970 -140.121023 -0.000000 0.062949 0.234504 -0.099485 -99.319279 310.020760 -0.000000 0.310430 0.397859 -0.348832
2.720000 -46.253444 -139.576491 -0.000000 0.059624 0.241898 -0.099852 -106.368245 334.509419 -0.000000 0.312404 0.389304 -0.348800
2.725000 -51.534998 -135.757483 -0.000000 0.057409 0.249602 -0.099661 -114.017900 357.703174 -0.000000 0.314208 0.380565 -0.348942
2.730000 -55.348425 -129.306693 -0.000000 0.055260 0.257624 -0.099632 -121.060276 379.960058 -0.000000 0.315843 0.371277 -0.349034
2.735000 -57.186914 -121.196532 -0.000000 0.053358 0.265948 -0.099724 -128.414181 401.088976 -0.000000 0.317255 0.362336 -0.349012
2.740000 -57.355715 -112.051534 -0.000000 0.051928 0.274568 -0.099811 -135.173605 421.566229 -0.000000 0.318394 0.353087 -0.349170
2.745000 -55.914552 -102.493105 -0.000000 0.050713 0.283347 -0.099847 -141.637409 441.533254 -0.000000 0.319122 0.343860 -0.349481
2.750000 -53.217185 -92.830917 -0.000000 0.049962 0.292367 -0.099967 -147.364808 461.401994 -0.000000 0.319595 0.334548 -0.349593
2.755000 -49.567652 -83.220426 -0.000000 0.049623 0.301558 -0.100097 -152.123356 481.532587 -0.000000 0.319901 0.325084 -0.349406
2.760000 -45.148153 -73.716384 -0.000000 0.049739 0.310837 -0.100159 -156.127577 502.114002 -0.000000 0.319745 0.315594 -0.349485
2.765000 -40.126901 -64.225485 -0.000000 0.050240 0.320236 -0.100242 -159.106369 523.429397 -0.000000 0.319242 0.306087 -0.349645
2.770000 -34.488466 -54.671440 -0.000000 0.051080 0.329610 -0.100521 -161.212315 545.595475 -0.000000 0.318382 0.296617 -0.350013
2.775000 -28.170345 -45.011179 -0.000000 0.052508 0.338966 -0.100599 -162.342212 568.800773 -0.000000 0.317070 0.287287 -0.350066
2.780000 -21.111991 -35.282373 -0.000000 0.054404 0.348401 -0.100797 -162.021170 593.306895 -0.000000 0.315362 0.278060 -0.350038
2.785000 -13.232527 -25.639049 -0.000000 0.056552 0.357725 -0.101050 -160.647081 619.064444 -0.000000 0.313304 0.268957 -0.349962
2.790000 -4.583946 -16.260946 -0.000000 0.059215 0.367031 -0.101149 -157.734917 646.186644 -0.000000 0.310885 0.259986 -0.349802
2.795000 4.699133 -7.416601 -0.000000 0.062265 0.376176 -0.101314 -153.209441 674.579855 -0.000000 0.307992 0.251090 -0.349652
2.800000 14.313260 0.578948 -0.000000 0.065753 0.385180 -0.101402 -147.314815 703.980027 -0.000000 0.304694 0.242545 -0.349547
2.805000 23.762621 7.422367 -0.000000 0.069606 0.393884 -0.101469 -139.768194 734.135140 -0.000000 0.301042 0.234167 -0.349347
2.810000 32.446448 12.862723 -0.000000 0.073937 0.402505 -0.101423 -129.760680 764.740425 -0.000000 0.296917 0.226113 -0.349210
2.815000 39.772307 16.793147 -0.000000 0.078569 0.410901 -0.101372 -117.168678 795.174663 -0.000000 0.292422 0.218192 -0.348947
2.820000 45.280845 19.283123 -0.000000 0.083713 0.418943 -0.101415 -102.250580 824.618135 -0.000000 0.287600 0.210682 -0.348655
2.825000 48.772212 20.400936 -0.000000 0.089775 0.426725 -0.101304 -82.977582 852.444405 -0.000000 0.282307 0.203299 -0.348347
2.830000 50.095698 20.594754 -0.000000 0.095602 0.434307 -0.101449 -62.727138 877.474156 -0.000000 0.276737 0.196440 -0.348127
2.835000 49.307840 20.164740 -0.000000 0.101292 0.441544 -0.101898 -41.531888 899.132306 -0.000000 0.270836 0.189889 -0.347945
2.840000 46.599676 19.334471 -0.000000 0.107917 0.448344 -0.102099 -17.627498 916.981781 -0.000000 0.264638 0.183659 -0.347757
2.845000 42.187735 18.473471 -0.000000 0.115445 0.454696 -0.102082 8.690837 930.483801 -0.000000 0.258085 0.177845 -0.347623
2.850000 36.335994 18.018893 -0.000000 0.123291 0.460759 -0.102008 35.911941 939.237455 -0.000000 0.251248 0.172273 -0.347543
2.855000 29.299842 18.496407 -0.000000 0.129995 0.466171 -0.102763 58.787565 943.349411 -0.000000 0.244215 0.167128 -0.347617
2.860000 21.573825 19.985008 -0.000000 0.137867 0.471303 -0.102976 83.296840 942.592719 -0.000000 0.236925 0.162493 -0.347619
2.865000 13.457468 22.831212 -0.000000 0.145903 0.475857 -0.103257 105.954667 937.322323 -0.000000 0.229524 0.158198 -0.347623
2.870000 5.296756 27.128292 -0.000000 0.154327 0.480041 -0.103625 127.172883 927.788445 -0.000000 0.221969 0.154475 -0.347667
2.875000 -2.620142 32.822958 -0.000000 0.163161 0.483558 -0.103889 146.570195 914.371233 -0.000000 0.214329 0.151105 -0.347756
2.880000 -10.135652 39.659841 -0.000000 0.171481 0.486705 -0.104113 161.950909 897.809309 -0.000000 0.206525 0.148245 -0.348032
2.885000 -16.992595 47.248884 -0.000000 0.180052 0.489320 -0.104312 175.139853 878.146339 -0.000000 0.198669 0.145868 -0.348160
2.890000 -22.989421 55.135644 -0.000000 0.188887 0.491516 -0.104343 186.707518 855.434071 -0.000000 0.190614 0.143989 -0.348235
2.895000 -28.179628 62.776607 -0.000000 0.197146 0.493223 -0.104593 194.537625 830.150108 -0.000000 0.182525 0.142565 -0.347995
2.900000 -32.466986 69.810474 -0.000000 0.205493 0.494473 -0.104736 200.446103 801.753883 -0.000000 0.174394 0.141691 -0.348386
2.905000 -35.868534 76.005561 -0.000000 0.213907 0.495230 -0.104801 204.891516 769.836984 -0.000000 0.166180 0.141376 -0.348442
2.910000 -38.506884 81.237950 -0.000000 0.222004 0.495388 -0.104837 207.220834 734.254742 -0.000000 0.157905 0.141646 -0.348539
2.915000 -40.402581 85.559049 -0.000000 0.229846 0.494959 -0.104844 207.635911 694.714099 -0.000000 0.149655 0.142448 -0.348551
2.920000 -41.539042 89.165221 -0.000000 0.237536 0.494133 -0.104915 206.444995 651.001399 -0.000000 0.141444 0.143847 -0.348047
2.925000 -42.084313 92.311290 -0.000000 0.244637 0.492648 -0.104805 202.798117 603.430174 -0.000000 0.133366 0.145869 -0.348110
